<?xml version="1.0" standalone="no"?>
<!DOCTYPE svg PUBLIC "-//W3C//DTD SVG 20010904//EN"
 "http://www.w3.org/TR/2001/REC-SVG-20010904/DTD/svg10.dtd">
<svg version="1.0" xmlns="http://www.w3.org/2000/svg"
 width="66.000000pt" height="70.000000pt" viewBox="0 0 66.000000 70.000000"
 preserveAspectRatio="xMidYMid meet">

<g transform="translate(0.000000,70.000000) scale(0.100000,-0.100000)"
fill="pink" stroke="black" stroke-width="5">
<path d="M0 350 l0 -350 330 0 330 0 0 350 0 350 -330 0 -330 0 0 -350z m398
232 c34 -48 35 -67 6 -101 -17 -21 -32 -30 -43 -26 -21 8 -7 -5 21 -19 30 -15
34 -36 9 -43 -19 -5 -21 -10 -16 -37 4 -17 13 -41 21 -53 8 -13 12 -23 9 -23
-2 0 3 -9 12 -20 26 -30 41 -24 46 18 3 35 4 34 5 -9 1 -29 -3 -51 -12 -58 -8
-6 -16 -25 -18 -42 -4 -23 0 -33 16 -41 12 -6 22 -11 24 -10 1 1 7 2 14 2 8 0
9 -3 1 -11 -13 -13 -141 -31 -156 -22 -18 11 -38 12 -32 2 7 -10 -86 0 -98 11
-5 4 5 14 22 21 17 8 31 16 31 19 0 3 -13 14 -29 23 -44 26 -53 67 -21 95 8 8
10 11 3 8 -6 -4 -14 -2 -18 4 -3 5 -23 10 -43 10 -42 0 -62 10 -66 32 -1 9 -8
23 -15 32 -11 13 -11 17 2 22 9 3 20 3 24 1 5 -3 15 -2 22 3 10 6 8 10 -8 15
-14 4 -21 13 -19 24 2 10 -3 26 -11 35 -19 23 -18 68 3 97 l17 24 -5 -27 c-4
-26 -2 -28 30 -28 24 0 34 5 34 15 0 8 9 15 21 15 16 0 19 4 14 20 -4 14 -2
20 8 20 16 0 67 -47 67 -62 0 -6 6 -8 13 -5 6 2 23 0 37 -6 34 -13 60 -16 54
-5 -4 5 -12 7 -20 4 -16 -6 -19 19 -4 29 17 11 11 56 -12 88 l-23 32 32 -23
c18 -13 41 -35 51 -50z m112 -214 c0 -10 3 -9 9 1 7 11 11 9 21 -9 6 -12 9
-24 6 -28 -3 -3 1 -14 11 -24 15 -17 15 -18 -13 -18 -32 1 -74 30 -74 52 0 15
19 38 32 38 4 0 8 -6 8 -12z"/>
<path d="M203 487 c1 -30 -4 -47 -13 -47 -5 0 -10 9 -10 20 0 27 -15 25 -39
-6 -32 -40 -16 -57 58 -60 l61 -3 0 33 c0 17 -6 39 -12 48 -17 20 -46 30 -45
15z m-16 -79 c-3 -8 -6 -5 -6 6 -1 11 2 17 5 13 3 -3 4 -12 1 -19z"/>
<path d="M246 168 c3 -5 10 -6 15 -3 13 9 11 12 -6 12 -8 0 -12 -4 -9 -9z"/>
<path d="M394 162 c-6 -4 -13 -14 -16 -23 -5 -13 -2 -16 13 -12 10 3 19 14 19
24 0 21 -1 22 -16 11z"/>
<path d="M321 141 c-14 -9 -5 -18 18 -17 18 1 27 26 9 26 -7 0 -19 -4 -27 -9z"/>
<path d="M228 103 c7 -3 16 -2 19 1 4 3 -2 6 -13 5 -11 0 -14 -3 -6 -6z"/>
<path d="M519 348 c-5 -16 -4 -46 2 -42 4 2 7 13 6 24 -1 17 -5 26 -8 18z"/>
</g>
</svg>
